<?xml version="1.0" encoding="UTF-8"?> <svg xmlns="http://www.w3.org/2000/svg" width="89" height="89" viewBox="0 0 89 89" fill="none"><path d="M88.1584 44.6069C88.1685 20.5439 68.6698 1.02867 44.6067 1.01853C20.5437 1.00838 1.02853 20.5071 1.01838 44.5701C1.00823 68.6332 20.5069 88.1484 44.57 88.1585C68.633 88.1687 88.1482 68.6699 88.1584 44.6069Z" stroke="#004231" stroke-width="0.57" stroke-miterlimit="22.93"></path><path d="M35.6851 25.7373L34.9351 29.4473L27.165 67.5173" stroke="#004231" stroke-width="2.19" stroke-linejoin="round"></path><path d="M51.8851 26.0874L43.3651 67.8674" stroke="#004231" stroke-width="2.19" stroke-linejoin="round"></path><path d="M51.175 29.6073L34.9351 29.4473" stroke="#004231" stroke-width="2.19" stroke-linejoin="round"></path><path d="M49.4551 37.1073L33.2151 36.9473" stroke="#004231" stroke-width="2.19" stroke-linejoin="round"></path><path d="M48.1552 44.6073L31.9052 44.4473" stroke="#004231" stroke-width="2.19" stroke-linejoin="round"></path><path d="M46.5751 52.1073L30.3251 51.9473" stroke="#004231" stroke-width="2.19" stroke-linejoin="round"></path><path d="M44.9951 59.6073L28.7551 59.4473" stroke="#004231" stroke-width="2.19" stroke-linejoin="round"></path><path d="M54.8551 30.3472L62.0051 67.5172" stroke="#004231" stroke-width="2.19" stroke-linejoin="round"></path><path d="M30.915 21.2773H58.1251" stroke="#004231" stroke-width="2.19" stroke-linejoin="round"></path></svg> 